HIERARCHY
ROOT hip
{
  OFFSET 0.00112043 5.09927 -9.65472
  CHANNELS 6 Xposition Yposition Zposition Zrotation Xrotation Yrotation
  JOINT abdomen
  {
    OFFSET 0 -1.186 -1.5018
    CHANNELS 3 Zrotation Xrotation Yrotation
    JOINT abdomen2
    {
      OFFSET 0 9.964 0.2134
      CHANNELS 3 Zrotation Xrotation Yrotation
      JOINT chest
      {
        OFFSET 0 13.134 -3.2573
        CHANNELS 3 Zrotation Xrotation Yrotation
        JOINT neck
        {
          OFFSET 0 20.686 -1.6905
          CHANNELS 3 Zrotation Xrotation Yrotation
          JOINT head
          {
            OFFSET 0 7.238 -0.1237
            CHANNELS 3 Zrotation Xrotation Yrotation
            End Site
            {
              OFFSET 0 0 0
            }
          }
        }
        JOINT lCollar
        {
          OFFSET 1.7069 20.075 5.0056
          CHANNELS 3 Zrotation Xrotation Yrotation
          JOINT lShldr
          {
            OFFSET 13.6458 -0.047 -4.849
            CHANNELS 3 Zrotation Xrotation Yrotation
            JOINT lForeArm
            {
              OFFSET 28.3255 -0.9759 2.2888
              CHANNELS 3 Zrotation Xrotation Yrotation
              JOINT lHand
              {
                OFFSET 22.1583 -0.53 10.8316
                CHANNELS 3 Zrotation Xrotation Yrotation
                JOINT lThumb1
                {
                  OFFSET 0.786 0.112 2.5817
                  CHANNELS 3 Zrotation Xrotation Yrotation
                  JOINT lThumb2
                  {
                    OFFSET 0.3601 -0.878 4.2331
                    CHANNELS 3 Zrotation Xrotation Yrotation
                    JOINT lThumb2_End
                    {
                      OFFSET 1.8127 -1.216 2.2227
                      CHANNELS 3 Zrotation Xrotation Yrotation
                      End Site
                      {
                        OFFSET 0.0181 -0.0122 0.0222
                      }
                    }
                  }
                }
                JOINT lCarpal1
                {
                  OFFSET 0.9571 1.114 1.7695
                  CHANNELS 3 Zrotation Xrotation Yrotation
                  JOINT lIndex1
                  {
                    OFFSET 4.1246 0.487 4.1451
                    CHANNELS 3 Zrotation Xrotation Yrotation
                    JOINT lIndex2
                    {
                      OFFSET 3.4052 -1.454 2.7682
                      CHANNELS 3 Zrotation Xrotation Yrotation
                      JOINT lIndex2_End
                      {
                        OFFSET 1.4531 -1.795 1.2713
                        CHANNELS 3 Zrotation Xrotation Yrotation
                        End Site
                        {
                          OFFSET 0.0145 -0.0179 0.0127
                        }
                      }
                    }
                  }
                  JOINT lMid1
                  {
                    OFFSET 5.6954 0.21 2.1184
                    CHANNELS 3 Zrotation Xrotation Yrotation
                    JOINT lMid2
                    {
                      OFFSET 3.9766 -1.54 2.3863
                      CHANNELS 3 Zrotation Xrotation Yrotation
                      JOINT lMid2_End
                      {
                        OFFSET 1.4042 -1.926 1.125
                        CHANNELS 3 Zrotation Xrotation Yrotation
                        End Site
                        {
                          OFFSET 0.014 -0.0193 0.0113
                        }
                      }
                    }
                  }
                }
                JOINT lCarpal2
                {
                  OFFSET 2.0956 0.66 -0.3894
                  CHANNELS 3 Zrotation Xrotation Yrotation
                  JOINT lRing1
                  {
                    OFFSET 5.0395 -0.09 2.4971
                    CHANNELS 3 Zrotation Xrotation Yrotation
                    JOINT lRing2
                    {
                      OFFSET 3.7921 -1.552 1.4806
                      CHANNELS 3 Zrotation Xrotation Yrotation
                      JOINT lRing2_End
                      {
                        OFFSET 1.4655 -1.808 0.9609
                        CHANNELS 3 Zrotation Xrotation Yrotation
                        End Site
                        {
                          OFFSET 0.0147 -0.0181 0.0096
                        }
                      }
                    }
                  }
                  JOINT lPinky1
                  {
                    OFFSET 4.9141 -1.269 0.3591
                    CHANNELS 3 Zrotation Xrotation Yrotation
                    JOINT lPinky2
                    {
                      OFFSET 3.1477 -1.685 0.8462
                      CHANNELS 3 Zrotation Xrotation Yrotation
                      JOINT lPinky2_End
                      {
                        OFFSET 0.8055 -1.585 0.7955
                        CHANNELS 3 Zrotation Xrotation Yrotation
                        End Site
                        {
                          OFFSET 0.0081 -0.0158 0.008
                        }
                      }
                    }
                  }
                }
              }
            }
          }
        }
        JOINT rCollar
        {
          OFFSET -1.7069 20.075 5.0056
          CHANNELS 3 Zrotation Xrotation Yrotation
          JOINT rShldr
          {
            OFFSET -13.6458 -0.047 -4.849
            CHANNELS 3 Zrotation Xrotation Yrotation
            JOINT rForeArm
            {
              OFFSET -28.3255 -0.9759 2.2888
              CHANNELS 3 Zrotation Xrotation Yrotation
              JOINT rHand
              {
                OFFSET -22.1583 -0.53 10.8316
                CHANNELS 3 Zrotation Xrotation Yrotation
                JOINT rThumb1
                {
                  OFFSET -0.786 0.112 2.5817
                  CHANNELS 3 Zrotation Xrotation Yrotation
                  JOINT rThumb2
                  {
                    OFFSET -0.3601 -0.878 4.2331
                    CHANNELS 3 Zrotation Xrotation Yrotation
                    JOINT rThumb2_End
                    {
                      OFFSET -1.8127 -1.216 2.2227
                      CHANNELS 3 Zrotation Xrotation Yrotation
                      End Site
                      {
                        OFFSET -0.0181 -0.0122 0.0222
                      }
                    }
                  }
                }
                JOINT rCarpal1
                {
                  OFFSET -0.9571 1.114 1.7695
                  CHANNELS 3 Zrotation Xrotation Yrotation
                  JOINT rIndex1
                  {
                    OFFSET -4.1246 0.487 4.1451
                    CHANNELS 3 Zrotation Xrotation Yrotation
                    JOINT rIndex2
                    {
                      OFFSET -3.4052 -1.454 2.7682
                      CHANNELS 3 Zrotation Xrotation Yrotation
                      JOINT rIndex2_End
                      {
                        OFFSET -1.4531 -1.795 1.2713
                        CHANNELS 3 Zrotation Xrotation Yrotation
                        End Site
                        {
                          OFFSET -0.0145 -0.018 0.0127
                        }
                      }
                    }
                  }
                  JOINT rMid1
                  {
                    OFFSET -5.6954 0.21 2.1184
                    CHANNELS 3 Zrotation Xrotation Yrotation
                    JOINT rMid2
                    {
                      OFFSET -3.9766 -1.54 2.3863
                      CHANNELS 3 Zrotation Xrotation Yrotation
                      JOINT rMid2_End
                      {
                        OFFSET -1.4042 -1.926 1.125
                        CHANNELS 3 Zrotation Xrotation Yrotation
                        End Site
                        {
                          OFFSET -0.014 -0.0193 0.0113
                        }
                      }
                    }
                  }
                }
                JOINT rCarpal2
                {
                  OFFSET -2.0956 0.66 -0.3894
                  CHANNELS 3 Zrotation Xrotation Yrotation
                  JOINT rRing1
                  {
                    OFFSET -5.0395 -0.09 2.4971
                    CHANNELS 3 Zrotation Xrotation Yrotation
                    JOINT rRing2
                    {
                      OFFSET -3.7921 -1.552 1.4806
                      CHANNELS 3 Zrotation Xrotation Yrotation
                      JOINT rRing2_End
                      {
                        OFFSET -1.4655 -1.808 0.9609
                        CHANNELS 3 Zrotation Xrotation Yrotation
                        End Site
                        {
                          OFFSET -0.0147 -0.0181 0.0096
                        }
                      }
                    }
                  }
                  JOINT rPinky1
                  {
                    OFFSET -4.9141 -1.269 0.3592
                    CHANNELS 3 Zrotation Xrotation Yrotation
                    JOINT rPinky2
                    {
                      OFFSET -3.1477 -1.685 0.8462
                      CHANNELS 3 Zrotation Xrotation Yrotation
                      JOINT rPinky2_End
                      {
                        OFFSET -0.8055 -1.585 0.7955
                        CHANNELS 3 Zrotation Xrotation Yrotation
                        End Site
                        {
                          OFFSET -0.0081 -0.0158 0.008
                        }
                      }
                    }
                  }
                }
              }
            }
          }
        }
      }
    }
  }
  JOINT lThigh
  {
    OFFSET 8.367 -8.2066 0.5982
    CHANNELS 3 Zrotation Xrotation Yrotation
    JOINT lShin
    {
      OFFSET 2.1923 -43.463 -0.4932
      CHANNELS 3 Zrotation Xrotation Yrotation
      JOINT lFoot
      {
        OFFSET 0.7333 -45.8593 -2.6451
        CHANNELS 3 Zrotation Xrotation Yrotation
        End Site
        {
          OFFSET 2.6618 -4.2699 12.3931
        }
      }
    }
  }
  JOINT rThigh
  {
    OFFSET -8.367 -8.2066 0.5982
    CHANNELS 3 Zrotation Xrotation Yrotation
    JOINT rShin
    {
      OFFSET -2.1923 -43.463 -0.4931
      CHANNELS 3 Zrotation Xrotation Yrotation
      JOINT rFoot
      {
        OFFSET -0.7333 -45.8593 -2.6451
        CHANNELS 3 Zrotation Xrotation Yrotation
        End Site
        {
          OFFSET -2.6618 -4.2699 12.3931
        }
      }
    }
  }
}
MOTION
Frames:	4
Frame Time:	0.0333333
0 91.7903 2.51682 0 0 -0 0 0 -0 0 0 -0 0 0 -0 0 0 -0 0 0 -0 0 0 -0 1.66051 0.0835086 5.75766 -0.0175111 0.895433 15.7816 7.95139e-016 -1.98785e-016 -0 5.46658e-016 -3.97569e-016 -0 5.96354e-016 0 -0 3.97569e-016 1.98785e-016 9.54166e-015 1.49089e-016 -3.97569e-016 -0 6.4605e-016 0 3.18055e-015 5.96354e-016 0 3.18055e-015 8.94531e-016 -1.98785e-016 6.36111e-015 6.4605e-016 0 3.18055e-015 5.96354e-016 0 3.18055e-015 8.94531e-016 -1.98785e-016 6.36111e-015 1.49089e-016 -3.97569e-016 -0 6.4605e-016 0 3.18055e-015 5.96354e-016 0 3.18055e-015 8.94531e-016 -1.98785e-016 6.36111e-015 6.4605e-016 0 3.18055e-015 5.96354e-016 0 3.18055e-015 8.94531e-016 -1.98785e-016 6.36111e-015 0 0 -0 -1.4496 0.0636048 -5.0245 -1.74811 1.20616 -16.8394 -1.19271e-015 1.98785e-016 -3.18055e-015 -3.97569e-016 1.98785e-016 -3.18055e-015 -2.98177e-016 1.98785e-016 -3.18055e-015 -2.98177e-016 3.97569e-016 -0 4.96962e-016 0 -6.36111e-015 -9.93923e-017 3.97569e-016 -0 -8.94531e-016 5.96354e-016 -0 -3.97569e-016 3.97569e-016 -0 -9.93923e-017 3.97569e-016 -0 -8.94531e-016 5.96354e-016 -0 -3.97569e-016 3.97569e-016 -0 4.96962e-016 0 -6.36111e-015 -9.93923e-017 3.97569e-016 -0 -8.94531e-016 5.96354e-016 -0 -3.97569e-016 3.97569e-016 -0 -9.93923e-017 3.97569e-016 -0 -8.94531e-016 5.96354e-016 -0 -3.97569e-016 3.97569e-016 -0 -4.66111 -0.998717 0.12318 0.00986924 1.54847 0.176523 4.65186 -0.572283 -0.254274 4.66111 -0.998765 -0.123176 -0.00986867 1.54869 -0.176537 -4.65186 -0.572453 0.25427 
-32.4951 38.3685 14.8424 36.2124 29.1341 123.62 -0.472451 1.5149 0.0147463 -0.945763 3.02948 0.041973 -0.945754 3.02948 0.0419968 1.62571e-007 11.9268 -3.28493e-005 -1.19427e-006 8.2127 -6.70285e-006 -9.35477 17.4338 -14.44 -30.8432 -5.17032 37.407 1.38907 -11.649 -42.8572 -11.1793 4.40628 -3.60345 -3.18055e-015 -4.77083e-015 -4.77083e-015 1.01642e-006 -1.18607e-006 -6.79367e-007 -6.36111e-015 3.97569e-015 3.18055e-015 -6.36111e-015 -4.77083e-015 -0 6.36111e-015 1.66979e-014 -1.59028e-015 1.01642e-006 -1.18607e-006 -6.79367e-007 2.42765e-031 8.74653e-015 -1.59028e-015 6.36111e-015 1.66979e-014 -1.59028e-015 1.01642e-006 -1.18607e-006 -6.79367e-007 2.42765e-031 8.74653e-015 -1.59028e-015 -6.36111e-015 -4.77083e-015 -0 6.36111e-015 1.66979e-014 -1.59028e-015 1.01642e-006 -1.18607e-006 -6.79367e-007 2.42765e-031 8.74653e-015 -1.59028e-015 6.36111e-015 1.66979e-014 -1.59028e-015 1.01642e-006 -1.18607e-006 -6.79367e-007 2.42765e-031 8.74653e-015 -1.59028e-015 9.3589 17.4332 14.4354 31.0071 -5.29572 -36.6585 -2.8614 -12.8025 41.5177 11.1622 4.37075 3.68671 -4.31612e-007 3.14367e-006 -6.11877e-007 -5.5216e-007 -3.05938e-007 -1.57184e-006 -1.01968e-006 9.01323e-008 2.124e-006 -3.18055e-015 -3.18055e-015 7.95139e-016 -4.31612e-007 3.14367e-006 -6.11877e-007 -5.5216e-007 -3.05938e-007 -1.57184e-006 -1.01968e-006 9.01323e-008 2.124e-006 -4.31612e-007 3.14367e-006 -6.11877e-007 -5.5216e-007 -3.05938e-007 -1.57184e-006 -1.01968e-006 9.01323e-008 2.124e-006 -3.18055e-015 -3.18055e-015 7.95139e-016 -4.31612e-007 3.14367e-006 -6.11877e-007 -5.5216e-007 -3.05938e-007 -1.57184e-006 -1.01968e-006 9.01323e-008 2.124e-006 -4.31612e-007 3.14367e-006 -6.11877e-007 -5.5216e-007 -3.05938e-007 -1.57184e-006 -1.01968e-006 9.01323e-008 2.124e-006 29.0387 -23.4209 62.6546 47.5385 60.33 -91.0218 -4.30712 19.5439 32.0319 -29.8242 -22.2661 -61.4021 -44.3016 59.2063 86.0944 4.23188 20.3822 -29.2281 
-39.251 13.7271 23.2188 -26.865 62.3242 -150.23 -0.695582 2.25403 -0.0108161 -1.39235 4.50796 0.0057851 -1.39235 4.50797 0.0057887 1.62879e-005 16.9115 6.83399e-007 3.77418e-007 11.5873 -1.97996e-006 -10.3392 24.2847 -22.236 -43.6628 -6.0541 51.803 -1.39479 -4.72864 -68.0624 -16.1345 6.16487 -5.04924 -1.32417e-031 -1.19271e-015 -6.36111e-015 -7.95139e-016 -7.95139e-016 -3.18055e-015 3.18055e-015 1.39149e-015 -3.18055e-015 -1.59028e-015 -2.78299e-015 -3.18055e-015 2.38542e-015 -7.55382e-015 9.54166e-015 7.95139e-016 3.57812e-015 -9.54166e-015 -1.98785e-015 -1.98785e-015 -3.18055e-015 2.38542e-015 -7.55382e-015 9.54166e-015 7.95139e-016 3.57812e-015 -9.54166e-015 -1.98785e-015 -1.98785e-015 -3.18055e-015 -1.59028e-015 -2.78299e-015 -3.18055e-015 2.38542e-015 -7.55382e-015 9.54166e-015 7.95139e-016 3.57812e-015 -9.54166e-015 -1.98785e-015 -1.98785e-015 -3.18055e-015 2.38542e-015 -7.55382e-015 9.54166e-015 7.95139e-016 3.57812e-015 -9.54166e-015 -1.98785e-015 -1.98785e-015 -3.18055e-015 10.3121 24.2821 22.2412 43.8012 -6.22553 -51.0677 0.640263 -6.26988 66.9228 16.106 6.11116 5.15965 4.77083e-015 1.11319e-014 -3.18055e-015 -4.30562e-006 -5.01489e-007 1.97395e-006 -1.59028e-015 -1.59028e-015 3.18055e-015 1.59028e-015 9.54166e-015 -0 7.95139e-015 -2.38542e-014 -0 -4.30562e-006 -5.01489e-007 1.97395e-006 -1.59028e-015 -9.54166e-015 6.36111e-015 7.95139e-015 -2.38542e-014 -0 -4.30562e-006 -5.01489e-007 1.97395e-006 -1.59028e-015 -9.54166e-015 6.36111e-015 1.59028e-015 9.54166e-015 -0 7.95139e-015 -2.38542e-014 -0 -4.30562e-006 -5.01489e-007 1.97395e-006 -1.59028e-015 -9.54166e-015 6.36111e-015 7.95139e-015 -2.38542e-014 -0 -4.30562e-006 -5.01489e-007 1.97395e-006 -1.59028e-015 -9.54166e-015 6.36111e-015 49.2702 -15.7048 86.4224 80.0046 32.7373 -126.266 -12.5307 21.5445 48.736 -50.291 -15.5258 -85.4179 -78.5029 34.0104 122.287 12.4347 23.1876 -44.7368 
-38.1731 19.1308 22.1192 5.6401e-015 60.9968 180 -0.641952 2.21464 -0.00612887 -1.28511 4.42918 0.0126094 -1.28511 4.42919 0.0126097 3.15302e-006 14.9537 -9.45713e-007 -1.29112e-007 10.1237 2.18482e-007 -9.9799 22.639 -20.9227 -41.0251 -6.07092 48.6918 -1.06591 -6.99652 -62.7675 -14.8007 5.35355 -4.97346 -2.30263e-006 -1.44906e-006 -1.96686e-006 -1.98785e-015 -7.55382e-015 -3.18055e-015 -1.19271e-015 -5.36719e-015 -9.54166e-015 -2.38542e-015 4.17448e-015 -3.18055e-015 -2.30263e-006 -1.44906e-006 -1.96686e-006 2.38542e-015 -9.93923e-016 -9.54166e-015 -1.19271e-015 -5.1684e-015 -3.18055e-015 -2.30263e-006 -1.44906e-006 -1.96686e-006 2.38542e-015 -9.93923e-016 -9.54166e-015 -1.19271e-015 -5.1684e-015 -3.18055e-015 -2.38542e-015 4.17448e-015 -3.18055e-015 -2.30263e-006 -1.44906e-006 -1.96686e-006 2.38542e-015 -9.93923e-016 -9.54166e-015 -1.19271e-015 -5.1684e-015 -3.18055e-015 -2.30263e-006 -1.44906e-006 -1.96686e-006 2.38542e-015 -9.93923e-016 -9.54166e-015 -1.19271e-015 -5.1684e-015 -3.18055e-015 9.88475 22.632 20.9523 41.2012 -6.25399 -47.979 0.139615 -8.48227 61.5873 14.7661 5.28607 5.0657 -3.97569e-015 -5.76476e-015 -3.18055e-015 -2.38542e-015 -2.5842e-015 -0 -7.95139e-016 -6.55989e-015 -0 -3.97569e-015 -6.36111e-015 -3.18055e-015 -2.38542e-015 -3.18055e-015 -0 -7.95139e-016 -1.0138e-014 -0 1.59028e-015 4.57205e-015 3.18055e-015 -2.38542e-015 -3.18055e-015 -0 -7.95139e-016 -1.0138e-014 -0 1.59028e-015 4.57205e-015 3.18055e-015 -3.97569e-015 -6.36111e-015 -3.18055e-015 -2.38542e-015 -3.18055e-015 -0 -7.95139e-016 -1.0138e-014 -0 1.59028e-015 4.57205e-015 3.18055e-015 -2.38542e-015 -3.18055e-015 -0 -7.95139e-016 -1.0138e-014 -0 1.59028e-015 4.57205e-015 3.18055e-015 44.3676 -19.0181 80.1327 76.585 40.4199 -121.458 -11.0255 21.2591 44.2681 -45.2497 -18.5723 -79.01 -74.5516 41.2329 117.311 10.9815 22.6772 -40.7594 
